<?xml version="1.0" standalone="no"?>
<!DOCTYPE svg PUBLIC "-//W3C//DTD SVG 20010904//EN"
 "http://www.w3.org/TR/2001/REC-SVG-20010904/DTD/svg10.dtd">
<svg version="1.0" xmlns="http://www.w3.org/2000/svg"
 width="512.000000pt" height="512.000000pt" viewBox="0 0 512.000000 512.000000"
 preserveAspectRatio="xMidYMid meet">
<metadata>
Created by potrace 1.14, written by Peter Selinger 2001-2017
</metadata>
<g transform="translate(0.000000,512.000000) scale(0.100000,-0.100000)"
fill="#000000" stroke="none">
<path d="M2290 5109 c-476 -50 -962 -251 -1338 -555 -120 -96 -306 -283 -382
-384 -14 -18 -29 -38 -35 -44 -82 -92 -246 -369 -323 -546 -61 -142 -131 -351
-146 -443 -3 -15 -7 -35 -10 -45 -3 -9 -7 -34 -11 -56 -3 -21 -7 -41 -9 -45
-4 -6 -12 -72 -26 -201 -8 -85 -5 -454 4 -515 4 -22 13 -80 21 -130 29 -174
78 -357 142 -520 37 -93 123 -273 161 -335 12 -19 29 -48 38 -65 19 -35 138
-207 156 -227 7 -7 29 -34 48 -58 88 -114 250 -276 377 -377 382 -304 822
-489 1303 -547 152 -19 526 -14 670 9 361 56 667 169 995 368 134 81 319 229
450 361 409 412 669 954 732 1531 10 90 10 447 0 546 -20 200 -79 448 -153
641 -345 894 -1152 1522 -2098 1632 -130 15 -444 18 -566 5z"/>
</g>
</svg>
